<?xml version='1.0' encoding='utf-8'?>
<svg xmlns:xlink="http://www.w3.org/1999/xlink" xmlns="http://www.w3.org/2000/svg" width="78.461mm" height="77.901mm" version="1.1" viewBox="0 0 78.461 77.901"> <defs> <linearGradient id="linearGradient79" x1="85.163" x2="85.175" y1="108.99" y2="109.57" gradientTransform="translate(55.105 3.51)" gradientUnits="userSpaceOnUse"> <stop stop-color="#333" offset="0"/> <stop stop-color="#666" offset="1"/> </linearGradient> <linearGradient id="linearGradient89" x1="85.163" x2="85.175" y1="109" y2="109.37" gradientTransform="translate(55.105 3.51)" gradientUnits="userSpaceOnUse"> <stop stop-color="#1a1a1a" offset="0"/> <stop stop-color="#1a1a1a" stop-opacity="0" offset="1"/> </linearGradient> <linearGradient id="linearGradient154" x1="153.27" x2="179.35" y1="180.77" y2="117.46" gradientUnits="userSpaceOnUse" xlink:href="#linearGradient152"/> <linearGradient id="linearGradient152"> <stop stop-color="#474642" offset="0"/> <stop stop-color="#bcb7b1" offset="1"/> </linearGradient> <filter id="filter979" x="-.023662" y="-.021998" width="1.0473" height="1.044" color-interpolation-filters="sRGB"> <feGaussianBlur stdDeviation="0.17738423"/> </filter> <linearGradient id="linearGradient160" x1="151.57" x2="169.9" y1="126.91" y2="103.85" gradientTransform="translate(1.9844 1.8899)" gradientUnits="userSpaceOnUse" xlink:href="#linearGradient152"/> <linearGradient id="linearGradient993" x1="142.12" x2="137.87" y1="105.08" y2="110.66" gradientUnits="userSpaceOnUse" xlink:href="#linearGradient991"/> <linearGradient id="linearGradient991"> <stop stop-color="#ccc" offset="0"/> <stop stop-color="#999" offset="1"/> </linearGradient> <linearGradient id="linearGradient1009" x1="139.52" x2="139.47" y1="107.11" y2="108.82" gradientTransform="translate(0 -216.17)" gradientUnits="userSpaceOnUse" xlink:href="#linearGradient1007"/> <linearGradient id="linearGradient1007"> <stop stop-color="#4d4d4d" offset="0"/> <stop stop-color="#1a1a1a" offset="1"/> </linearGradient> <linearGradient id="linearGradient4771" x1="139.28" x2="139.58" y1="102.8" y2="111.18" gradientUnits="userSpaceOnUse" xlink:href="#linearGradient4769"/> <linearGradient id="linearGradient4769"> <stop stop-color="#808080" offset="0"/> <stop stop-color="#808080" stop-opacity="0" offset="1"/> </linearGradient> </defs> <metadata> </metadata> <g transform="translate(-85.502 -109.22)"> <g> <rect x="126.92" y="109.59" width="37.042" height="77.523" rx="6.0325" ry="6.0325" fill="#ccc"/> <rect x="127.49" y="109.99" width="35.904" height="76.729" rx="5.8472" ry="5.9707" fill="#666"/> <rect x="128.04" y="110.64" width="34.835" height="75.217" rx="5.6731" ry="5.8531" fill="#1a1a1a"/> <circle cx="140.3" cy="112.69" r=".60136" fill="#4d4d4d"/> <circle cx="140.28" cy="112.7" r=".3842" fill="url(#linearGradient79)"/> <circle cx="140.28" cy="112.7" r=".23065" fill="url(#linearGradient89)"/> <circle cx="140.34" cy="112.6" r=".088906" fill="#999"/> <rect x="142.37" y="111.08" width="6.35" height=".39687" rx=".18521" ry=".18521" fill="#4d4d4d"/> <path d="m134.19 111.42c-3.0103 0-5.4338 2.5645-5.4338 5.7495v62.382c0 3.185 2.4235 5.7495 5.4338 5.7495h22.497c3.0103 0 5.4338-2.5645 5.4338-5.7495v-62.382c0-3.185-2.4235-5.7495-5.4338-5.7495h-4.6343v0.78135c0 1.1433-0.92012 2.064-2.0634 2.064h-9.1018c-1.1433 0-2.064-0.92064-2.064-2.064v-0.78135z" fill="#888a85"/> </g> <g transform="translate(-65.158 3.132)"> <g> <rect x="150.66" y="106.08" width="37.042" height="77.523" rx="6.0325" ry="6.0325" fill="#ccc"/> <rect x="151.23" y="106.48" width="35.904" height="76.729" rx="5.8472" ry="5.9707" fill="#666"/> <rect x="151.78" y="107.13" width="34.835" height="75.217" rx="5.6731" ry="5.8531" fill="url(#linearGradient154)"/> <rect x="153.1" y="108.08" width="17.992" height="19.352" rx="4.5693" ry="4.6915" fill="#ccc" filter="url(#filter979)"/> <rect x="153.76" y="109.02" width="16.669" height="17.462" rx="4.2333" ry="4.2333" fill="url(#linearGradient160)"/> </g> <g transform="translate(26.464 9.3649)"> <g> <circle cx="139.59" cy="108.09" r="3.7042" fill="url(#linearGradient993)"/> <circle cx="139.59" cy="108.09" r="3.2317" fill="#1a1a1a"/> <circle cx="139.59" cy="108.09" r="2.7592" fill="#162d50"/> <circle transform="scale(1,-1)" cx="139.59" cy="-108.09" r="1.2001" fill="url(#linearGradient1009)"/> </g> <a transform="matrix(.72973 0 0 .72973 37.277 28.858)"> <circle cx="139.59" cy="108.09" r=".34963" fill="#808080"/> </a> <a transform="matrix(.52703 0 0 .52703 66.328 51.406)"> <circle cx="139.59" cy="108.09" r=".34963" fill="#808080"/> </a> <circle cx="139.59" cy="108.09" r="3.2317" fill="url(#linearGradient4771)"/> </g> <g transform="translate(18.481 5.0495)"> <g> <circle cx="139.59" cy="108.09" r="3.7042" fill="url(#linearGradient993)"/> <circle cx="139.59" cy="108.09" r="3.2317" fill="#1a1a1a"/> <circle cx="139.59" cy="108.09" r="2.7592" fill="#162d50"/> <circle transform="scale(1,-1)" cx="139.59" cy="-108.09" r="1.2001" fill="url(#linearGradient1009)"/> </g> <a transform="matrix(.72973 0 0 .72973 37.277 28.858)"> <circle cx="139.59" cy="108.09" r=".34963" fill="#808080"/> </a> <a transform="matrix(.52703 0 0 .52703 66.328 51.406)"> <circle cx="139.59" cy="108.09" r=".34963" fill="#808080"/> </a> <circle cx="139.59" cy="108.09" r="3.2317" fill="url(#linearGradient4771)"/> </g> <g transform="translate(18.308 13.43)"> <g> <circle cx="139.59" cy="108.09" r="3.7042" fill="url(#linearGradient993)"/> <circle cx="139.59" cy="108.09" r="3.2317" fill="#1a1a1a"/> <circle cx="139.59" cy="108.09" r="2.7592" fill="#162d50"/> <circle transform="scale(1,-1)" cx="139.59" cy="-108.09" r="1.2001" fill="url(#linearGradient1009)"/> </g> <a transform="matrix(.72973 0 0 .72973 37.277 28.858)"> <circle cx="139.59" cy="108.09" r=".34963" fill="#808080"/> </a> <a transform="matrix(.52703 0 0 .52703 66.328 51.406)"> <circle cx="139.59" cy="108.09" r=".34963" fill="#808080"/> </a> <circle cx="139.59" cy="108.09" r="3.2317" fill="url(#linearGradient4771)"/> </g> <ellipse cx="165.36" cy="122.94" rx="1.5434" ry="1.3229" fill="#333"/> <g transform="matrix(.68182 0 0 .68182 55.867 48.43)"> <ellipse cx="160.73" cy="92.515" rx="2.0789" ry="1.9844" fill="#f2f2f2"/> <ellipse cx="160.73" cy="92.515" rx="1.6424" ry="1.5677" fill="#fff"/> </g> </g> </g> </svg>