<?xml version="1.0" encoding="utf-8"?>
<!-- Generator: Adobe Illustrator 24.1.1, SVG Export Plug-In . SVG Version: 6.00 Build 0)  -->
<svg version="1.1" id="Layer_1" xmlns="http://www.w3.org/2000/svg" xmlns:xlink="http://www.w3.org/1999/xlink" x="0px" y="0px"
	 viewBox="0 0 1600 1200" style="enable-background:new 0 0 1600 1200;" xml:space="preserve">
<style type="text/css">
	.st0{fill:#EBF0FB;}
	.st1{fill:#FFFFFF;}
	.st2{fill:#666666;}
	.st3{fill:none;stroke:#DBDBDB;stroke-miterlimit:10;}
</style>
<g>
	<g>
		
			<image style="overflow:visible;opacity:0.75;" width="488" height="958" xlink:href="D0AB60E6.png"  transform="matrix(1 0 0 1 563 128)">
		</image>
		<g>
			<path class="st0" d="M965.9,1064H634.1c-34.7,0-63.1-28.4-63.1-63.1V199.1c0-34.7,28.4-63.1,63.1-63.1h331.9
				c34.7,0,63.1,28.4,63.1,63.1v801.9C1029,1035.6,1000.6,1064,965.9,1064z"/>
		</g>
	</g>
	<path class="st1" d="M956.5,159H894c-0.3,12.1-10.3,22-22.5,22h-143c-12.2,0-22.2-9.9-22.5-22h-62.5c-27.6,0-50,22.4-50,50V991
		c0,27.6,22.4,50,50,50h312.9c27.6,0,50-22.4,50-50V209C1006.5,181.4,984.1,159,956.5,159z"/>
</g>
<g>
	
		<image style="overflow:visible;opacity:0.75;" width="489" height="958" xlink:href="D0AB60EA.png"  transform="matrix(1 0 0 1 63 128)">
	</image>
	<g>
		<path class="st2" d="M466.3,1064H134.4c-34.7,0-63.1-28.4-63.1-63.1V199.1c0-34.7,28.4-63.1,63.1-63.1h331.9
			c34.7,0,63.1,28.4,63.1,63.1v801.9C529.4,1035.6,501,1064,466.3,1064z"/>
	</g>
</g>
<path class="st1" d="M456.8,159h-62.5c-0.3,12.1-10.3,22-22.5,22h-143c-12.2,0-22.2-9.9-22.5-22h-62.5c-27.6,0-50,22.4-50,50V991
	c0,27.6,22.4,50,50,50h312.9c27.6,0,50-22.4,50-50V209C506.9,181.4,484.5,159,456.8,159z"/>
<g>
	
		<image style="overflow:visible;opacity:0.75;" width="490" height="960" xlink:href="D0AB60ED.png"  transform="matrix(1 0 0 1 1077 127)">
	</image>
	<g>
		<path class="st1" d="M1481.3,1064h-331.9c-34.7,0-63.1-28.4-63.1-63.1V199.1c0-34.7,28.4-63.1,63.1-63.1h331.9
			c34.7,0,63.1,28.4,63.1,63.1v801.9C1544.4,1035.6,1516,1064,1481.3,1064z"/>
		<path class="st3" d="M1481.3,1064h-331.9c-34.7,0-63.1-28.4-63.1-63.1V199.1c0-34.7,28.4-63.1,63.1-63.1h331.9
			c34.7,0,63.1,28.4,63.1,63.1v801.9C1544.4,1035.6,1516,1064,1481.3,1064z"/>
	</g>
</g>
<path class="st0" d="M1471.8,159h-62.5c-0.3,12.1-10.3,22-22.5,22h-143c-12.2,0-22.2-9.9-22.5-22h-62.5c-27.6,0-50,22.4-50,50V991
	c0,27.6,22.4,50,50,50h312.9c27.6,0,50-22.4,50-50V209C1521.9,181.4,1499.5,159,1471.8,159z"/>
</svg>
